<?xml version="1.0" encoding="UTF-8" standalone="no"?>
<svg
   xmlns:dc="http://purl.org/dc/elements/1.1/"
   xmlns:cc="http://creativecommons.org/ns#"
   xmlns:rdf="http://www.w3.org/1999/02/22-rdf-syntax-ns#"
   xmlns:svg="http://www.w3.org/2000/svg"
   xmlns="http://www.w3.org/2000/svg"
   id="svg8"
   version="1.1"
   viewBox="0 0 127 21.166667"
   height="80"
   width="480">
  <defs
     id="defs2" />
  <metadata
     id="metadata5">
    <rdf:RDF>
      <cc:Work
         rdf:about="">
        <dc:format>image/svg+xml</dc:format>
        <dc:type
           rdf:resource="http://purl.org/dc/dcmitype/StillImage" />
        <dc:title></dc:title>
      </cc:Work>
    </rdf:RDF>
  </metadata>
  <g
     transform="translate(0,-275.83332)"
     id="layer1">
    <path
       transform="matrix(0.26458333,0,0,0.26458333,0,275.83332)"
       id="path882"
       d="M 33.474609,0 C 33.253427,0.46566917 32.943166,0.87667492 32.742188,1.3535156 31.859068,3.4488033 31.173645,5.6490445 30.708984,7.9316406 30.244324,10.214237 30,12.578307 30,15.001953 c 0,2.423651 0.244324,4.787914 0.708984,7.070313 0.464661,2.282398 1.150084,4.48318 2.033204,6.578125 0.883119,2.094945 1.963372,4.084022 3.21875,5.945312 1.255377,1.86129 2.686144,3.594347 4.267578,5.175781 1.581434,1.581435 3.314491,3.012201 5.175781,4.267578 1.861289,1.255378 3.850368,2.335631 5.945312,3.21875 2.094944,0.88312 4.295728,1.568543 6.578125,2.033204 C 60.210131,49.755676 62.574398,50 64.998047,50 c 2.423648,0 4.787714,-0.244324 7.070312,-0.708984 2.282599,-0.464661 4.482836,-1.150084 6.578125,-2.033204 C 79.123326,47.056834 79.53433,46.746573 80,46.525391 V 10 C 80,4.4600001 75.54,0 70,0 Z"
       style="opacity:1;fill:#ffffff;fill-opacity:1;stroke:none;stroke-width:1.33333337;stroke-linecap:round;stroke-linejoin:round;stroke-miterlimit:4;stroke-dasharray:none;stroke-opacity:1;paint-order:stroke fill markers" />
    <path
       id="path880"
       transform="matrix(0.26458333,0,0,0.26458333,0,275.83332)"
       d="M 10,0 C 4.4600001,0 0,4.4600001 0,10 v 60 c 0,5.54 4.4600001,10 10,10 h 60 c 5.54,0 10,-4.46 10,-10 V 57.232422 c -1.950496,0.696702 -3.888363,1.42976 -5.951172,1.853516 C 72.720228,59.358867 71.367606,59.564536 70,59.716797 V 65 c 0,2.770016 -2.230003,5 -5,5 -2.770001,0 -5,-2.229984 -5,-5 v -5.283203 c -1.370029,-0.152302 -2.724212,-0.357545 -4.054688,-0.630859 -0.521094,-0.107047 -1.034366,-0.234353 -1.548828,-0.359376 -0.549073,-0.133434 -1.093665,-0.27816 -1.634765,-0.43164 -0.116086,-0.03269 -0.231862,-0.06599 -0.347657,-0.09961 -0.471115,-0.137767 -0.939644,-0.280921 -1.404296,-0.433593 -0.257128,-0.08381 -0.512079,-0.173325 -0.767578,-0.261719 -0.316059,-0.110252 -0.632482,-0.218873 -0.945313,-0.335938 -0.555013,-0.205953 -1.105992,-0.424743 -1.652344,-0.652343 -0.04572,-0.01921 -0.09302,-0.03533 -0.138672,-0.05469 -0.0086,-0.0036 -0.01679,-0.0081 -0.02539,-0.01172 -5.294428,-2.229988 -10.163403,-5.467413 -14.304688,-9.603515 -4.677856,-4.671966 -8.206064,-10.27306 -10.429687,-16.365235 -0.01094,-0.02974 -0.02037,-0.06008 -0.03125,-0.08984 -0.204895,-0.565068 -0.399848,-1.133858 -0.582032,-1.707031 -0.0754,-0.235317 -0.147143,-0.472019 -0.21875,-0.708985 -0.117602,-0.392298 -0.229017,-0.785986 -0.335937,-1.181641 -0.08329,-0.30584 -0.167205,-0.611562 -0.244141,-0.919921 -0.07705,-0.311109 -0.146363,-0.624563 -0.216796,-0.9375 -0.06639,-0.292919 -0.14252,-0.581934 -0.203126,-0.876953 -0.01831,-0.08911 -0.03105,-0.180234 -0.04883,-0.269532 -0.01808,-0.09141 -0.03131,-0.183843 -0.04883,-0.27539 C 20.593972,22.354449 20.414889,21.184582 20.283203,20 H 18 l -8,-5 8,-5 h 2.283203 C 20.435464,8.6323937 20.641132,7.2797715 20.914062,5.9511719 21.337819,3.8883628 22.070875,1.9504962 22.767578,0 Z"
       style="opacity:1;fill:#ffffff;fill-opacity:1;stroke:none;stroke-width:1.33333337;stroke-linecap:round;stroke-linejoin:round;stroke-miterlimit:4;stroke-dasharray:none;stroke-opacity:1;paint-order:stroke fill markers" />
    <path
       id="rect815"
       transform="matrix(0.26458333,0,0,0.26458333,0,275.83332)"
       d="M 22.767578,0 C 22.070875,1.9504962 21.337819,3.8883628 20.914062,5.9511719 20.641132,7.2797715 20.435464,8.6323937 20.283203,10 H 25 v 0.002 a 4.9995984,4.9933221 0 0 1 4.994141,5.0625 c 1e-6,2.370774 0.246106,4.71565 0.714843,7.003906 C 30.244821,19.787122 30,17.424275 30,15.001953 30,12.578307 30.244324,10.214237 30.708984,7.9316406 31.173645,5.6490445 31.859068,3.4488033 32.742188,1.3535156 32.943165,0.87667495 33.253427,0.46566917 33.474609,0 Z m -2.484375,20 c 0.131686,1.184582 0.310769,2.354449 0.533203,3.509766 C 20.594374,22.349553 20.413677,21.179557 20.283203,20 Z m 10.4375,2.119141 c 0.108303,0.524713 0.225343,1.04622 0.357422,1.564453 -0.131078,-0.517203 -0.249535,-1.038251 -0.357422,-1.564453 z m -9.855469,1.666015 c 0.01777,0.0893 0.03052,0.180424 0.04883,0.269532 0.06061,0.295019 0.136733,0.584034 0.203126,0.876953 -0.08585,-0.381418 -0.175997,-0.762521 -0.251954,-1.146485 z m 10.451172,0.75586 c 0.07203,0.255262 0.139012,0.512212 0.216797,0.765625 -0.07728,-0.252869 -0.145102,-0.510325 -0.216797,-0.765625 z m -9.982422,1.328125 c 0.07694,0.308359 0.160846,0.614081 0.244141,0.919921 -0.08279,-0.30635 -0.167804,-0.611674 -0.244141,-0.919921 z m 10.546875,0.490234 c 0.06321,0.184778 0.121218,0.371033 0.1875,0.554687 -0.06589,-0.183164 -0.124586,-0.370098 -0.1875,-0.554687 z m -9.966797,1.611328 c 0.07161,0.236966 0.143347,0.473668 0.21875,0.708985 -0.07492,-0.2357 -0.147705,-0.471997 -0.21875,-0.708985 z m 10.636719,0.195313 c 0.042,0.103712 0.08006,0.209196 0.123047,0.3125 -0.04288,-0.103249 -0.08113,-0.208747 -0.123047,-0.3125 z M 80,46.525391 c -0.46567,0.221182 -0.876674,0.531444 -1.353516,0.732421 -2.095289,0.88312 -4.295526,1.568543 -6.578125,2.033204 C 69.786378,49.75555 67.422961,49.999868 65,50 c 0.406713,0 0.795748,0.06154 1.173828,0.152344 a 5.0003237,4.9940463 0 0 1 0.574219,0.177734 c 0.126572,0.04719 0.249674,0.09741 0.371094,0.154297 a 5.0003237,4.9940463 0 0 1 0.501953,0.271484 c 0.116497,0.07191 0.228056,0.147558 0.33789,0.228516 a 5.0003237,4.9940463 0 0 1 0.445313,0.365234 c 0.09302,0.08674 0.179474,0.177902 0.265625,0.271485 a 5.0003237,4.9940463 0 0 1 0.394531,0.478515 c 0.05861,0.08212 0.112364,0.166214 0.166016,0.251953 a 5.0003237,4.9940463 0 0 1 0.332031,0.615235 c 0.03161,0.0711 0.05759,0.143972 0.08594,0.216797 a 5.0003237,4.9940463 0 0 1 0.232421,0.75 c 0.02405,0.111239 0.04399,0.22398 0.06055,0.33789 a 5.0003237,4.9940463 0 0 1 0.01953,0.132813 c 0.01181,0.09998 0.01952,0.200996 0.02539,0.302734 a 5.0003237,4.9940463 0 0 1 0.0098,0.222657 C 69.996422,54.953401 70,54.976205 70,55 v 4.716797 c 1.367606,-0.152261 2.720228,-0.35793 4.048828,-0.630859 C 76.111637,58.662182 78.049504,57.929124 80,57.232422 Z m -22.035156,2.771484 c 0.559639,0.11431 1.123393,0.213744 1.689453,0.300781 -0.568048,-0.08636 -1.130862,-0.187682 -1.689453,-0.300781 z m 1.689453,0.300781 c 1.706045,0.262321 3.438542,0.402564 5.185547,0.410156 0.0531,-0.0017 0.104727,-0.0077 0.158203,-0.0078 -1.817737,0 -3.602305,-0.137599 -5.34375,-0.402344 z m -10.357422,7.566406 c 0.312831,0.117065 0.629254,0.225686 0.945313,0.335938 -0.31619,-0.109391 -0.631725,-0.219571 -0.945313,-0.335938 z m 1.712891,0.597657 c 0.464652,0.152672 0.933181,0.295826 1.404296,0.433593 -0.470427,-0.136569 -0.938916,-0.2819 -1.404296,-0.433593 z m 1.751953,0.533203 c 0.5411,0.15348 1.085692,0.298206 1.634765,0.43164 -0.548688,-0.132552 -1.092112,-0.278809 -1.634765,-0.43164 z m 1.634765,0.43164 c 0.514462,0.125023 1.027734,0.252329 1.548828,0.359376 1.330476,0.273314 2.684659,0.478557 4.054688,0.630859 v -0.0059 c -1.89286,-0.21101 -3.76466,-0.540145 -5.603516,-0.984376 z"
       style="opacity:1;fill:#ffffff;fill-opacity:0.49803922;stroke:none;stroke-width:1.33333337;stroke-linecap:round;stroke-linejoin:round;stroke-miterlimit:4;stroke-dasharray:none;stroke-opacity:1;paint-order:stroke fill markers" />
    <g
       id="text961"
       style="font-style:normal;font-variant:normal;font-weight:bold;font-stretch:normal;font-size:10.35551167px;line-height:1.25;font-family:Overpass;-inkscape-font-specification:'Overpass Bold';text-align:start;letter-spacing:0px;word-spacing:0px;text-anchor:start;fill:#ffffff;fill-opacity:1;stroke:none;stroke-width:0.26458335"
       aria-label="First Exit Productions">
      <path
         id="path963"
         style="font-style:normal;font-variant:normal;font-weight:bold;font-stretch:normal;font-family:Overpass;-inkscape-font-specification:'Overpass Bold';fill:#ffffff;stroke-width:0.26458335"
         d="m 24.692718,289.0625 h 1.242662 v -3.15843 h 2.195368 V 284.7339 H 25.93538 v -1.75009 h 3.43803 v -1.17017 h -4.680692 z" />
      <path
         id="path965"
         style="font-style:normal;font-variant:normal;font-weight:bold;font-stretch:normal;font-family:Overpass;-inkscape-font-specification:'Overpass Bold';fill:#ffffff;stroke-width:0.26458335"
         d="m 31.075921,283.04595 c 0.403865,0 0.71453,-0.32102 0.71453,-0.72489 0,-0.39351 -0.310665,-0.71453 -0.71453,-0.71453 -0.403865,0 -0.724886,0.32102 -0.724886,0.71453 0,0.40387 0.321021,0.72489 0.724886,0.72489 z m -0.610976,6.01655 h 1.211595 v -5.29167 h -1.211595 z" />
      <path
         id="path967"
         style="font-style:normal;font-variant:normal;font-weight:bold;font-stretch:normal;font-family:Overpass;-inkscape-font-specification:'Overpass Bold';fill:#ffffff;stroke-width:0.26458335"
         d="m 33.245724,289.0625 h 1.211595 v -2.96168 c 0,-1.00448 0.528131,-1.26337 0.994129,-1.26337 0.403865,0 0.683464,0.12427 0.90093,0.2796 l 0.176043,-1.10804 c -0.269243,-0.22782 -0.590264,-0.36244 -0.983773,-0.36244 -0.528131,0 -0.880219,0.23817 -1.087329,0.67311 v -0.54885 h -1.211595 z" />
      <path
         id="path969"
         style="font-style:normal;font-variant:normal;font-weight:bold;font-stretch:normal;font-family:Overpass;-inkscape-font-specification:'Overpass Bold';fill:#ffffff;stroke-width:0.26458335"
         d="m 39.130729,289.18677 c 1.22195,0 2.02968,-0.54885 2.02968,-1.57404 0,-1.00449 -0.71453,-1.43942 -1.739726,-1.78115 -0.559197,-0.1864 -1.035551,-0.3728 -1.035551,-0.69382 0,-0.2796 0.279599,-0.43493 0.71453,-0.43493 0.48671,0 0.797375,0.19675 1.056263,0.44529 l 0.838796,-0.68347 c -0.362443,-0.42457 -0.983774,-0.81808 -1.895059,-0.81808 -1.045906,0 -1.884703,0.51777 -1.884703,1.47048 0,0.89057 0.60062,1.33586 1.750082,1.71901 0.600619,0.23818 1.025195,0.40387 1.025195,0.77667 0,0.38315 -0.362442,0.51777 -0.859507,0.51777 -0.579909,0 -1.01484,-0.34173 -1.232306,-0.55919 l -0.828441,0.70417 c 0.39351,0.5592 1.211595,0.91129 2.060747,0.91129 z" />
      <path
         id="path971"
         style="font-style:normal;font-variant:normal;font-weight:bold;font-stretch:normal;font-family:Overpass;-inkscape-font-specification:'Overpass Bold';fill:#ffffff;stroke-width:0.26458335"
         d="m 43.941026,289.18677 c 0.434932,0 0.80773,-0.0829 1.10804,-0.23818 l 0.144977,-1.08733 c -0.279598,0.15533 -0.559197,0.23818 -0.828441,0.23818 -0.32102,0 -0.445287,-0.20711 -0.445287,-0.50742 v -2.76492 h 1.221951 v -1.05627 h -1.221951 v -2.18501 l -1.211594,0.57991 v 1.6051 h -0.787019 v 1.05627 h 0.787019 v 3.00309 c 0,0.8388 0.362442,1.35658 1.232305,1.35658 z" />
      <path
         id="path973"
         style="font-style:normal;font-variant:normal;font-weight:bold;font-stretch:normal;font-family:Overpass;-inkscape-font-specification:'Overpass Bold';fill:#ffffff;stroke-width:0.26458335"
         d="m 49.024126,289.0625 h 4.949935 v -1.17017 h -3.707274 v -1.98826 h 2.143591 v -1.17017 h -2.143591 v -1.75009 h 3.479452 v -1.17017 h -4.722113 z" />
      <path
         id="path975"
         style="font-style:normal;font-variant:normal;font-weight:bold;font-stretch:normal;font-family:Overpass;-inkscape-font-specification:'Overpass Bold';fill:#ffffff;stroke-width:0.26458335"
         d="m 54.836481,289.0625 h 1.397994 l 0.849152,-1.28408 c 0.113911,-0.16569 0.227821,-0.34174 0.289954,-0.47636 0.07249,0.13462 0.165688,0.31067 0.279599,0.47636 l 0.859508,1.28408 h 1.397994 l -1.843281,-2.75457 1.708659,-2.5371 h -1.397994 l -0.724886,1.07698 c -0.113911,0.16568 -0.20711,0.34173 -0.279599,0.47635 -0.06213,-0.13462 -0.176043,-0.30031 -0.289954,-0.47635 l -0.71453,-1.07698 h -1.397994 l 1.698304,2.5371 z" />
      <path
         id="path977"
         style="font-style:normal;font-variant:normal;font-weight:bold;font-stretch:normal;font-family:Overpass;-inkscape-font-specification:'Overpass Bold';fill:#ffffff;stroke-width:0.26458335"
         d="m 61.657043,283.04595 c 0.403864,0 0.71453,-0.32102 0.71453,-0.72489 0,-0.39351 -0.310666,-0.71453 -0.71453,-0.71453 -0.403865,0 -0.724886,0.32102 -0.724886,0.71453 0,0.40387 0.321021,0.72489 0.724886,0.72489 z m -0.610976,6.01655 h 1.211595 v -5.29167 h -1.211595 z" />
      <path
         id="path979"
         style="font-style:normal;font-variant:normal;font-weight:bold;font-stretch:normal;font-family:Overpass;-inkscape-font-specification:'Overpass Bold';fill:#ffffff;stroke-width:0.26458335"
         d="m 65.380172,289.18677 c 0.434932,0 0.80773,-0.0829 1.10804,-0.23818 l 0.144977,-1.08733 c -0.279598,0.15533 -0.559197,0.23818 -0.828441,0.23818 -0.32102,0 -0.445287,-0.20711 -0.445287,-0.50742 v -2.76492 h 1.221951 v -1.05627 h -1.221951 v -2.18501 l -1.211594,0.57991 v 1.6051 h -0.787019 v 1.05627 h 0.787019 v 3.00309 c 0,0.8388 0.362442,1.35658 1.232305,1.35658 z" />
      <path
         id="path981"
         style="font-style:normal;font-variant:normal;font-weight:bold;font-stretch:normal;font-family:Overpass;-inkscape-font-specification:'Overpass Bold';fill:#ffffff;stroke-width:0.26458335"
         d="m 70.463272,289.0625 h 1.242661 v -2.74421 h 1.770793 c 1.739726,0 2.433545,-1.22195 2.433545,-2.2575 0,-1.10804 -0.631686,-2.24715 -2.433545,-2.24715 h -3.013454 z m 3.075587,-3.92474 h -1.832926 v -2.14359 h 1.832926 c 0.849152,0 1.087329,0.61098 1.087329,1.06662 0,0.50742 -0.289955,1.07697 -1.087329,1.07697 z" />
      <path
         id="path983"
         style="font-style:normal;font-variant:normal;font-weight:bold;font-stretch:normal;font-family:Overpass;-inkscape-font-specification:'Overpass Bold';fill:#ffffff;stroke-width:0.26458335"
         d="m 76.953265,289.0625 h 1.211595 v -2.96168 c 0,-1.00448 0.528131,-1.26337 0.994129,-1.26337 0.403865,0 0.683464,0.12427 0.900929,0.2796 l 0.176044,-1.10804 c -0.269243,-0.22782 -0.590264,-0.36244 -0.983774,-0.36244 -0.528131,0 -0.880218,0.23817 -1.087328,0.67311 v -0.54885 h -1.211595 z" />
      <path
         id="path985"
         style="font-style:normal;font-variant:normal;font-weight:bold;font-stretch:normal;font-family:Overpass;-inkscape-font-specification:'Overpass Bold';fill:#ffffff;stroke-width:0.26458335"
         d="m 83.263815,289.18677 c 1.491193,0 2.433545,-1.0252 2.433545,-2.76493 0,-1.72937 -0.942352,-2.77527 -2.433545,-2.77527 -1.480839,0 -2.42319,1.0459 -2.42319,2.77527 0,1.73973 0.942351,2.76493 2.42319,2.76493 z m 0,-1.15982 c -0.735242,0 -1.211595,-0.60062 -1.211595,-1.60511 0,-1.00448 0.476353,-1.62581 1.211595,-1.62581 0.755952,0 1.22195,0.62133 1.22195,1.62581 0,1.00449 -0.465998,1.60511 -1.22195,1.60511 z" />
      <path
         id="path987"
         style="font-style:normal;font-variant:normal;font-weight:bold;font-stretch:normal;font-family:Overpass;-inkscape-font-specification:'Overpass Bold';fill:#ffffff;stroke-width:0.26458335"
         d="m 88.921648,289.18677 c 0.559197,0 0.942351,-0.1864 1.190884,-0.50742 v 0.38315 h 1.211594 v -7.47668 l -1.211594,0.54884 v 2.00897 c -0.248533,-0.28995 -0.631687,-0.49706 -1.190884,-0.49706 -1.273728,0 -2.195369,1.03555 -2.195369,2.76492 0,1.76044 0.859508,2.77528 2.195369,2.77528 z m 0.186399,-1.15982 c -0.745597,0 -1.170173,-0.6524 -1.170173,-1.61546 0,-1.04591 0.424576,-1.61546 1.170173,-1.61546 0.50742,0 0.849152,0.2796 1.004485,0.50742 v 2.21608 c -0.217466,0.33138 -0.548842,0.50742 -1.004485,0.50742 z" />
      <path
         id="path989"
         style="font-style:normal;font-variant:normal;font-weight:bold;font-stretch:normal;font-family:Overpass;-inkscape-font-specification:'Overpass Bold';fill:#ffffff;stroke-width:0.26458335"
         d="m 96.091382,289.0625 h 1.211595 v -5.29167 h -1.211595 v 3.04452 c 0,0.88022 -0.424576,1.2116 -1.066618,1.2116 -0.621331,0 -0.994129,-0.36244 -0.994129,-1.23231 v -3.02381 H 92.81904 v 3.24128 c 0,1.61546 0.880219,2.17466 1.884703,2.17466 0.590264,0 1.056262,-0.20711 1.387639,-0.63169 z" />
      <path
         id="path991"
         style="font-style:normal;font-variant:normal;font-weight:bold;font-stretch:normal;font-family:Overpass;-inkscape-font-specification:'Overpass Bold';fill:#ffffff;stroke-width:0.26458335"
         d="m 100.95976,289.18677 c 1.09769,0 1.82257,-0.53849 2.12288,-1.5844 l -1.15981,-0.35208 c -0.14498,0.49706 -0.48671,0.7663 -0.96307,0.7663 -0.69381,0 -1.128746,-0.61097 -1.128746,-1.59475 0,-0.98377 0.434936,-1.61546 1.170176,-1.61546 0.43493,0 0.75595,0.2796 0.91128,0.68347 l 1.14946,-0.38316 c -0.32102,-1.01484 -1.07697,-1.46012 -2.10217,-1.46012 -1.439411,0 -2.361052,1.0459 -2.361052,2.77527 0,1.73973 0.921641,2.76493 2.361052,2.76493 z" />
      <path
         id="path993"
         style="font-style:normal;font-variant:normal;font-weight:bold;font-stretch:normal;font-family:Overpass;-inkscape-font-specification:'Overpass Bold';fill:#ffffff;stroke-width:0.26458335"
         d="m 105.85161,289.18677 c 0.43493,0 0.80773,-0.0829 1.10804,-0.23818 l 0.14498,-1.08733 c -0.2796,0.15533 -0.5592,0.23818 -0.82844,0.23818 -0.32102,0 -0.44529,-0.20711 -0.44529,-0.50742 v -2.76492 h 1.22195 v -1.05627 h -1.22195 v -2.18501 l -1.21159,0.57991 v 1.6051 h -0.78702 v 1.05627 h 0.78702 v 3.00309 c 0,0.8388 0.36244,1.35658 1.2323,1.35658 z" />
      <path
         id="path995"
         style="font-style:normal;font-variant:normal;font-weight:bold;font-stretch:normal;font-family:Overpass;-inkscape-font-specification:'Overpass Bold';fill:#ffffff;stroke-width:0.26458335"
         d="m 108.92428,283.04595 c 0.40387,0 0.71454,-0.32102 0.71454,-0.72489 0,-0.39351 -0.31067,-0.71453 -0.71454,-0.71453 -0.40386,0 -0.72488,0.32102 -0.72488,0.71453 0,0.40387 0.32102,0.72489 0.72488,0.72489 z m -0.61097,6.01655 h 1.21159 v -5.29167 h -1.21159 z" />
      <path
         id="path997"
         style="font-style:normal;font-variant:normal;font-weight:bold;font-stretch:normal;font-family:Overpass;-inkscape-font-specification:'Overpass Bold';fill:#ffffff;stroke-width:0.26458335"
         d="m 113.25839,289.18677 c 1.4912,0 2.43355,-1.0252 2.43355,-2.76493 0,-1.72937 -0.94235,-2.77527 -2.43355,-2.77527 -1.48083,0 -2.42319,1.0459 -2.42319,2.77527 0,1.73973 0.94236,2.76493 2.42319,2.76493 z m 0,-1.15982 c -0.73524,0 -1.21159,-0.60062 -1.21159,-1.60511 0,-1.00448 0.47635,-1.62581 1.21159,-1.62581 0.75596,0 1.22195,0.62133 1.22195,1.62581 0,1.00449 -0.46599,1.60511 -1.22195,1.60511 z" />
      <path
         id="path999"
         style="font-style:normal;font-variant:normal;font-weight:bold;font-stretch:normal;font-family:Overpass;-inkscape-font-specification:'Overpass Bold';fill:#ffffff;stroke-width:0.26458335"
         d="m 120.25208,289.0625 h 1.2116 v -3.25163 c 0,-1.61546 -0.86986,-2.1643 -1.87435,-2.1643 -0.60062,0 -1.05626,0.20711 -1.39799,0.62133 v -0.49707 h -1.2116 v 5.29167 h 1.2116 v -3.05488 c 0,-0.86986 0.42457,-1.21159 1.07697,-1.21159 0.61098,0 0.98377,0.36244 0.98377,1.23231 z" />
      <path
         id="path1001"
         style="font-style:normal;font-variant:normal;font-weight:bold;font-stretch:normal;font-family:Overpass;-inkscape-font-specification:'Overpass Bold';fill:#ffffff;stroke-width:0.26458335"
         d="m 124.66482,289.18677 c 1.22196,0 2.02969,-0.54885 2.02969,-1.57404 0,-1.00449 -0.71454,-1.43942 -1.73973,-1.78115 -0.5592,-0.1864 -1.03555,-0.3728 -1.03555,-0.69382 0,-0.2796 0.2796,-0.43493 0.71453,-0.43493 0.48671,0 0.79737,0.19675 1.05626,0.44529 l 0.8388,-0.68347 c -0.36245,-0.42457 -0.98378,-0.81808 -1.89506,-0.81808 -1.04591,0 -1.8847,0.51777 -1.8847,1.47048 0,0.89057 0.60061,1.33586 1.75008,1.71901 0.60062,0.23818 1.02519,0.40387 1.02519,0.77667 0,0.38315 -0.36244,0.51777 -0.85951,0.51777 -0.5799,0 -1.01484,-0.34173 -1.2323,-0.55919 l -0.82844,0.70417 c 0.39351,0.5592 1.21159,0.91129 2.06074,0.91129 z" />
    </g>
  </g>
</svg>
