<svg version="1" xmlns="http://www.w3.org/2000/svg" width="1365.333" height="1365.333" viewBox="0 0 1024.000000 1024.000000"><path d="M186 128.7c-31.7 3.4-59.3 16.5-81.5 38.8-28 28-43.6 67.1-47.6 119.5-2.3 31.3 1.8 58.7 14.6 96 9.2 26.7 22.6 55.4 38.1 81.4 8.8 14.7 48.5 74.8 68.6 103.6 44.7 64.5 64.2 103.3 67.8 135.4 1.8 16.3-1.1 43.9-6.1 59-5.1 15-13.8 25.5-24.4 29.5-12.1 4.5-27.1 2.5-36.9-5-18.1-13.9-28.5-53.1-28.6-107.2 0-11.4-.2-12.7-1.7-12.7-2.4 0-97.6 8.8-103 9.6l-4.3.5v11.2c0 46.1 7 91.1 18.5 120.3 8.4 21 17.8 35.9 31.4 49.4 25.6 25.4 62 38 109.8 38 30.9 0 54.4-4.9 75.8-15.6 36.5-18.4 61-53.2 71.9-102.4 4.9-22.2 6-34.2 6.1-65.5 0-26-.2-30.2-2.2-40.6-7.5-38.6-22.1-72.6-54.7-126.9-10-16.7-25.4-40.1-78.7-119.5-30.8-45.8-45.1-73.8-51.2-99.9-1.7-7.5-2.1-12.2-2-26.1.2-40 9.3-62.4 28-68.6 4.9-1.6 17-.7 21.8 1.6 9.2 4.4 18.1 17.1 23.5 33.5 3.5 10.9 5.9 28 7.1 50.3.6 11.6 1.1 21.3 1.2 21.4.1.1 18.4-1.6 40.7-3.7 22.3-2.1 46.5-4.4 53.8-5.1l13.2-1.2v-11.1c0-30.3-5.9-66.5-15.2-93.4-19.7-57.4-55.2-87-112.8-94.1-7.9-1-33.1-1.3-41-.4zM807.9 129.5c-32 5.2-56.3 17.7-77.3 39.6-23.6 24.5-37.8 56.3-44.2 98.4-2.7 18-2.5 54.8.4 70.5 5.1 27.7 18.3 65.3 33.7 95.9 14 28.1 34.8 60.7 87.6 137.6 37.4 54.6 55.1 87.4 62.6 116.5 6.3 24.2 2.9 63.1-7.2 83.7-8.3 16.8-22.6 24.7-40.3 22.2-18.2-2.6-29.6-15.8-37.6-43.7-4.6-16-6.5-30.2-7.7-58.5-.6-13.3-1.2-24.3-1.4-24.5-.3-.3-92.3 8.1-102.7 9.4l-4.8.6v15.5c0 38.7 5.4 77.9 14.6 106.3 1.9 5.8 6.1 15.9 9.3 22.5 19.7 40.2 51.5 63.4 98 71.6 14.9 2.7 45.4 3.6 60.1 2 30.1-3.5 52.3-11.6 72.1-26.6 34.9-26.2 54.3-70.4 59-134.5 4.9-66.9-10.5-114.8-64.9-202-10.7-17.2-27.7-42.7-67.1-100.7-19.5-28.8-31.9-49.4-41-68.3-12.2-25.5-16.1-40.6-16.1-62.4 0-46.7 12.9-70.9 37.9-70.7 19.2.1 33.8 19.8 39.5 53.1 2.1 12.3 3.6 30.7 3.6 44.3v10.8l5.3-.5c10.2-1.2 100.3-9.6 102.2-9.6 1.8 0 2-9 .5-29-2.8-38-10.9-71.5-23.4-97.6-7.4-15.4-14.3-25.3-25.5-36.5-17.9-17.9-37.9-28.3-65.7-34-13.2-2.7-46.9-3.5-59.5-1.4zM404 524.9V798h44.8c55.8 0 72.3-1.5 96.2-8.7 10.2-3 24.5-9.9 31.5-15.2 32.6-24.6 45.4-65.5 49.5-158.1 1.3-29.9 1.3-151.4 0-181-2.5-55.7-7.8-90.4-17.9-116.1-5.4-13.9-11.1-22.9-20.4-32.6-16.7-17.4-37.1-26.5-71.7-31.9-8.4-1.3-20.7-1.8-61.2-2.1l-50.8-.5v273.1zM502 333c10.5 1.4 16.5 3.8 22.1 8.8 12 10.7 17.1 32.9 18.9 81.2 1.2 32.5 1.2 170.7 0 203.5-2.1 56.7-8.9 78.8-26.8 86.8-5.8 2.6-17.5 4.7-26.3 4.7H485V332h4.8c2.6 0 8.1.5 12.2 1z"/></svg>